<svg width="49" height="49" viewBox="0 0 49 49" fill="none" xmlns="http://www.w3.org/2000/svg">
<circle cx="24.5" cy="24.5" r="23.5" fill="#2D2F37" stroke="#3E4047" stroke-width="2"/>
<path d="M18.2269 32.2493C21.3846 32.2557 23.2702 29.7628 23.2702 25.4673C23.2702 21.1974 21.3718 18.7301 18.2269 18.7301C15.082 18.7301 13.19 21.1911 13.1836 25.4673C13.1836 29.7564 15.0692 32.2493 18.2269 32.2493ZM18.2269 30.2486C16.5969 30.2486 15.5742 28.6122 15.5806 25.4673C15.587 22.348 16.6033 20.7053 18.2269 20.7053C19.8569 20.7053 20.8732 22.348 20.8796 25.4673C20.8796 28.6122 19.8633 30.2486 18.2269 30.2486ZM29.9121 32.179C32.7118 32.179 34.7509 30.5746 34.7445 28.3629C34.7509 26.7266 33.7282 25.5504 31.8937 25.2884V25.1861C33.3127 24.8793 34.2651 23.8246 34.2587 22.3544C34.2651 20.3601 32.5648 18.7301 29.9505 18.7301C27.4064 18.7301 25.4377 20.245 25.3866 22.4375H27.6685C27.7069 21.3381 28.7296 20.6541 29.9377 20.6541C31.1586 20.6541 31.9704 21.3956 31.964 22.495C31.9704 23.6392 31.0243 24.3999 29.6692 24.3999H28.5123V26.228H29.6692C31.3248 26.228 32.3091 27.0589 32.3028 28.2415C32.3091 29.3984 31.3056 30.1911 29.9057 30.1911C28.589 30.1911 27.5726 29.5071 27.5151 28.4396H25.1117C25.1756 30.6513 27.1508 32.179 29.9121 32.179Z" fill="#9A9BA2"/>
</svg>
