<svg width="49" height="49" viewBox="0 0 49 49" fill="none" xmlns="http://www.w3.org/2000/svg">
<circle cx="24.5" cy="24.5" r="23.5" fill="#2D2F37" stroke="#3E4047" stroke-width="2"/>
<path d="M18.0951 32.2493C21.2527 32.2557 23.1384 29.7628 23.1384 25.4673C23.1384 21.1974 21.2399 18.7301 18.0951 18.7301C14.9502 18.7301 13.0581 21.1911 13.0517 25.4673C13.0517 29.7564 14.9374 32.2493 18.0951 32.2493ZM18.0951 30.2486C16.4651 30.2486 15.4424 28.6122 15.4488 25.4673C15.4551 22.348 16.4715 20.7053 18.0951 20.7053C19.725 20.7053 20.7414 22.348 20.7478 25.4673C20.7478 28.6122 19.7314 30.2486 18.0951 30.2486ZM24.8456 29.571H31.0907V32H33.3534V29.571H35.0282V27.6214H33.3534V18.9091H30.4003L24.8456 27.6854V29.571ZM31.1162 27.6214H27.2746V27.5192L31.014 21.5938H31.1162V27.6214Z" fill="#9A9BA2"/>
</svg>
