<svg width="49" height="49" viewBox="0 0 49 49" fill="none" xmlns="http://www.w3.org/2000/svg">
<circle cx="24.5" cy="24.5" r="23.5" fill="#2D2F37" stroke="#3E4047" stroke-width="2"/>
<path d="M20.265 32.2493C19.2124 32.2493 18.309 31.983 17.5548 31.4503C16.8048 30.9134 16.2273 30.1399 15.8225 29.13C15.4219 28.1158 15.2217 26.8949 15.2217 25.4673C15.2259 24.0398 15.4283 22.8253 15.8289 21.8239C16.2337 20.8182 16.8111 20.0511 17.5611 19.5227C18.3154 18.9943 19.2167 18.7301 20.265 18.7301C21.3133 18.7301 22.2146 18.9943 22.9688 19.5227C23.7231 20.0511 24.3005 20.8182 24.7011 21.8239C25.1059 22.8295 25.3083 24.044 25.3083 25.4673C25.3083 26.8991 25.1059 28.1222 24.7011 29.1364C24.3005 30.1463 23.7231 30.9176 22.9688 31.4503C22.2188 31.983 21.3175 32.2493 20.265 32.2493ZM20.265 30.2486C21.0832 30.2486 21.7288 29.8459 22.2018 29.0405C22.679 28.2308 22.9177 27.0398 22.9177 25.4673C22.9177 24.4276 22.809 23.554 22.5917 22.8466C22.3744 22.1392 22.0675 21.6065 21.6712 21.2486C21.2749 20.8864 20.8062 20.7053 20.265 20.7053C19.4511 20.7053 18.8076 21.1101 18.3346 21.9197C17.8616 22.7251 17.6229 23.9077 17.6187 25.4673C17.6144 26.5114 17.7188 27.3892 17.9319 28.1009C18.1492 28.8125 18.456 29.3494 18.8523 29.7116C19.2486 30.0696 19.7195 30.2486 20.265 30.2486ZM32.5766 18.9091V32H30.2052V21.2166H30.1285L27.0667 23.1726V20.9993L30.3202 18.9091H32.5766Z" fill="#9A9BA2"/>
</svg>
