<svg width="49" height="49" viewBox="0 0 49 49" fill="none" xmlns="http://www.w3.org/2000/svg">
<circle cx="24.5" cy="24.5" r="23.5" fill="#2D2F37" stroke="#3E4047" stroke-width="2"/>
<path d="M18.4994 32.2493C21.657 32.2557 23.5427 29.7628 23.5427 25.4673C23.5427 21.1974 21.6442 18.7301 18.4994 18.7301C15.3545 18.7301 13.4624 21.1911 13.456 25.4673C13.456 29.7564 15.3417 32.2493 18.4994 32.2493ZM18.4994 30.2486C16.8694 30.2486 15.8467 28.6122 15.8531 25.4673C15.8594 22.348 16.8758 20.7053 18.4994 20.7053C20.1293 20.7053 21.1457 22.348 21.1521 25.4673C21.1521 28.6122 20.1357 30.2486 18.4994 30.2486ZM25.4864 32H34.4609V30.0185H28.7592V29.929L31.0156 27.6342C33.5596 25.1925 34.2627 24.0036 34.2627 22.527C34.2627 20.3345 32.4793 18.7301 29.8458 18.7301C27.2506 18.7301 25.4097 20.3409 25.4097 22.8274H27.6661C27.6661 21.4915 28.5099 20.6541 29.8139 20.6541C31.0603 20.6541 31.9871 21.4148 31.9871 22.6484C31.9871 23.7415 31.3224 24.5213 30.0312 25.8317L25.4864 30.2869V32Z" fill="#9A9BA2"/>
</svg>
